<?xml version='1.0' encoding='utf-8'?>
<svg xmlns="http://www.w3.org/2000/svg" version="1.1" x="0px" y="0px" viewBox="220.40 287.30 237.40 36.20" style="enable-background:new 0 0 600 600;" xml:space="preserve" width="237.40" height="36.20">
<g id="Слой_1">
	<path d="M127.9,289.2v49.6l48.5,0l17.2,0l0-77.5L127.9,289.2 Z" fill="#fff" /><path d="M189.1,323.3l-17.9-9.9l-30.1,20.2l29.4-37.7l-17.4,7.3l-20.3-11.4   l56.4-24C188.8,268,189.1,323.3,189.1,323.3 Z" fill="#000" /><g>
		<path d="M220.4,287.9h34.2v3.8h-34.2V287.9z M235.3,290h4.4v32.7h-4.4V290z" fill="#fff" />
		<path d="M348.8,309.3c-0.3,2.8-1.3,5.2-2.9,7.3c-1.6,2.1-3.8,3.8-6.4,4.9c-2.6,1.2-5.7,1.8-9.1,1.8c-3.8,0-7.2-0.8-10.1-2.3    c-2.9-1.5-5.1-3.6-6.7-6.3c-1.6-2.7-2.4-5.8-2.4-9.4c0-3.6,0.8-6.7,2.4-9.4c1.6-2.7,3.9-4.8,6.7-6.3c2.9-1.5,6.2-2.3,10.1-2.3    c3.4,0,6.4,0.6,9.1,1.8c2.6,1.2,4.8,2.8,6.4,4.9c1.6,2.1,2.6,4.5,2.9,7.3h-4.4c-0.4-2-1.2-3.8-2.4-5.3c-1.2-1.5-2.8-2.7-4.8-3.5    c-2-0.8-4.2-1.2-6.8-1.2c-3,0-5.6,0.6-7.8,1.7c-2.2,1.1-3.9,2.8-5.1,4.9c-1.2,2.1-1.8,4.6-1.8,7.5c0,2.8,0.6,5.3,1.8,7.4    c1.2,2.1,2.9,3.7,5.1,4.9c2.2,1.2,4.8,1.7,7.8,1.7c2.6,0,4.8-0.4,6.8-1.2s3.6-2,4.8-3.5s2-3.3,2.4-5.4H348.8z" fill="#fff" />
		<path d="M390,311.4h4.4c0.2,1.6,0.9,3.1,1.9,4.3c1.1,1.2,2.5,2.2,4.3,2.8c1.8,0.7,3.8,1,6.1,1c3.5,0,6.3-0.6,8.3-1.8    c2.1-1.2,3.1-2.8,3.1-4.8c0-1.6-0.6-2.8-1.9-3.6c-1.3-0.8-3.5-1.4-6.7-1.8l-6.7-0.8c-4.2-0.5-7.3-1.5-9.1-3    c-1.9-1.5-2.8-3.6-2.8-6.2c0-2.1,0.6-3.9,1.9-5.4c1.2-1.5,3-2.7,5.2-3.5c2.2-0.8,4.9-1.2,7.9-1.2c3,0,5.7,0.5,8,1.4    c2.3,0.9,4.2,2.2,5.6,3.8s2.1,3.5,2.2,5.7h-4.4c-0.2-1.5-0.8-2.8-1.8-3.8c-1-1.1-2.3-1.9-4-2.5c-1.7-0.6-3.6-0.9-5.8-0.9    c-3.2,0-5.7,0.6-7.6,1.7c-1.9,1.1-2.8,2.7-2.8,4.7c0,1.5,0.6,2.7,1.9,3.5c1.3,0.8,3.4,1.4,6.4,1.8l6.6,0.9    c3.1,0.4,5.5,0.9,7.3,1.6c1.8,0.7,3.1,1.7,3.9,2.8c0.8,1.2,1.2,2.7,1.2,4.5c0,2.2-0.7,4.1-2,5.7c-1.3,1.6-3.2,2.8-5.5,3.7    c-2.4,0.9-5.1,1.3-8.3,1.3c-3.2,0-6-0.5-8.5-1.5c-2.5-1-4.4-2.4-5.9-4.2C390.9,315.8,390.1,313.8,390,311.4z" fill="#fff" />
		<path d="M423.6,287.9h34.2v3.8h-34.2V287.9z M438.5,290h4.4v32.7h-4.4V290z" fill="#fff" />
		<path d="M275.9,309.4h12.3l0,0.7c-0.3,1.9-1.1,3.5-2.4,4.9c-1.2,1.4-2.8,2.5-4.7,3.3c-1.9,0.8-4.2,1.2-6.7,1.2    c-3,0-5.6-0.6-7.8-1.7c-2.2-1.1-3.9-2.8-5.1-4.9c-1-1.8-1.6-3.9-1.8-6.3h0c0-0.4-0.1-0.9-0.1-1.3c0-2.9,0.6-5.4,1.8-7.5    c1.2-2.1,2.9-3.7,5.1-4.9c2.2-1.1,4.8-1.7,7.8-1.7c2.6,0,4.8,0.4,6.7,1.2c1.9,0.8,3.5,1.9,4.7,3.3c1.2,1.4,2,3.1,2.4,4.9h4.4    c-0.3-2.6-1.3-4.8-2.9-6.8c-1.6-2-3.7-3.6-6.3-4.7c-2.6-1.1-5.6-1.7-9-1.7c-2.8,0-5.4,0.4-7.8,1.3c-2.3,0.8-4.4,2.1-6.1,3.6    c-1.7,1.6-3.1,3.5-4,5.7c-0.8,1.9-1.2,3.9-1.4,6.2h0c0,0.4-0.1,0.9-0.1,1.3c0,2.7,0.5,5.2,1.4,7.4c0.9,2.2,2.3,4.1,4,5.7    c1.7,1.6,3.8,2.8,6.1,3.6c2.3,0.8,4.9,1.3,7.8,1.3c3.4,0,6.4-0.6,9-1.7c2.6-1.1,4.7-2.7,6.3-4.7c1.6-2,2.6-4.3,2.9-6.8l0-4.2    h-16.8V309.4z" fill="#fff" />
		<path d="M355,322.6l5.2-9.7h18.6l5.2,9.7h4.7L372,291.8l-2.6-4.5l-2.5,4.5l-16.6,30.8H355z M369.5,295.4l7.5,14.2h-15.1    L369.5,295.4z" fill="#fff" />
	</g>
</g>
<g id="Слой_2">
</g>
<g id="Слой_3">
</g>
</svg>