<svg width="246" height="152" viewBox="0 0 246 152" fill="none" xmlns="http://www.w3.org/2000/svg">
<path d="M187.58 0.715734L71.0024 19.5777C46.8115 23.4233 29.0117 40.747 29.0117 64.9928V84.8802C29.0117 108.503 45.9508 127.384 69.4092 131.888L186.976 150.897C217.796 156.83 245.484 138.335 245.484 107.295V46.4238C245.484 16.025 217.924 -4.11878 187.58 0.715734Z" fill="#638DEA"/>
<path d="M166.777 4.12563L51.536 22.6213C27.5283 26.3387 9.875 46.2994 9.875 69.7028V79.4451C9.875 102.263 26.6859 124.421 49.9612 128.779L165.642 147.421C196.223 153.153 224.645 131.068 224.645 101.091V51.7566C224.645 22.3832 196.901 -0.544071 166.777 4.12563Z" fill="#91B6ED"/>
<path d="M146.503 7.36497L44.2461 23.9195C18.9565 28.0032 0.259357 49.7036 0.00298168 75.3228C-0.271706 101.327 18.462 123.595 44.1362 127.77L145.057 144.086C175.254 149.946 203.199 126.964 203.199 96.2357V55.6735C203.199 25.586 176.243 2.5854 146.503 7.36497Z" fill="#F5F5F5"/>
<path d="M32.0665 62.9793C31.1326 62.9793 30.3085 62.6496 29.631 61.9721C28.9351 61.2945 28.6055 60.4888 28.6055 59.5182C28.6055 58.5843 28.9534 57.7785 29.631 57.1009C30.3085 56.4234 31.1326 56.0938 32.0665 56.0938C33.0371 56.0938 33.8429 56.4234 34.5021 57.1009C35.1614 57.7785 35.491 58.5843 35.491 59.5182C35.491 60.4888 35.1614 61.3128 34.5021 61.9721C33.8429 62.6313 33.0371 62.9793 32.0665 62.9793ZM29.4845 91.4919V68.0885H34.6486V91.5102H29.4845V91.4919Z" fill="#2E68E8"/>
<path d="M38.4219 80.9058V75.8516H51.0209V80.9058H38.4219Z" fill="#2E68E8"/>
<path d="M66.3496 91.9707C63.1632 91.9707 60.4896 90.7804 58.3104 88.418C56.1312 86.0374 55.0508 83.1807 55.0508 79.7928C55.0508 76.405 56.1312 73.5483 58.3104 71.1676C60.4896 68.787 63.1632 67.615 66.3496 67.615C67.9428 67.615 69.4078 67.9629 70.7446 68.6771C72.0814 69.373 73.1253 70.2337 73.8394 71.2226V56.3711H78.9853V91.4945H73.8394V88.3631C73.1253 89.3703 72.0814 90.2127 70.7446 90.9086C69.4261 91.6227 67.9428 91.9707 66.3496 91.9707ZM62.2842 85.1401C63.6027 86.5685 65.2692 87.301 67.3019 87.301C69.3346 87.301 71.001 86.5868 72.3195 85.1401C73.638 83.7117 74.2789 81.9171 74.2789 79.7928C74.2789 77.6686 73.6197 75.8923 72.3195 74.4456C71.001 73.0172 69.3346 72.2847 67.3019 72.2847C65.2692 72.2847 63.6027 72.9989 62.2842 74.4456C60.9657 75.874 60.3248 77.6686 60.3248 79.7928C60.3065 81.9171 60.9657 83.6934 62.2842 85.1401Z" fill="#2E68E8"/>
<path d="M86.2697 62.9793C85.3357 62.9793 84.5117 62.6496 83.8341 61.9721C83.1382 61.2945 82.8086 60.4888 82.8086 59.5182C82.8086 58.5843 83.1565 57.7785 83.8341 57.1009C84.5117 56.4234 85.3357 56.0938 86.2697 56.0938C87.2402 56.0938 88.046 56.4234 88.7052 57.1009C89.3645 57.7785 89.6941 58.5843 89.6941 59.5182C89.6941 60.4888 89.3645 61.3128 88.7052 61.9721C88.046 62.6313 87.2402 62.9793 86.2697 62.9793ZM83.6876 91.4919V68.0885H88.8334V91.5102H83.6876V91.4919Z" fill="#2E68E8"/>
<path d="M103.651 101.765C101.362 101.765 99.2559 101.38 97.3331 100.611C95.392 99.8421 93.8537 98.7983 92.7 97.4432L95.8315 93.7441C97.9191 96.0148 100.519 97.1685 103.614 97.1685C105.647 97.1685 107.332 96.5276 108.669 95.2274C110.005 93.9272 110.683 92.1509 110.683 89.8618V87.7009C109.932 88.7631 108.888 89.6421 107.551 90.3196C106.215 91.0155 104.75 91.3451 103.193 91.3451C100.043 91.3451 97.3697 90.1914 95.2088 87.9024C93.0297 85.6133 91.9492 82.7932 91.9492 79.442C91.9492 76.1274 93.0297 73.3256 95.2088 71.0365C97.388 68.7474 100.043 67.5938 103.193 67.5938C104.75 67.5938 106.215 67.9234 107.551 68.6009C108.888 69.2785 109.932 70.1392 110.683 71.2013V68.0699H115.829V89.9167C115.829 93.8173 114.712 96.7656 112.478 98.7617C110.243 100.758 107.313 101.765 103.651 101.765ZM99.146 84.5878C100.483 85.9429 102.149 86.6205 104.109 86.6205C106.068 86.6205 107.735 85.9429 109.071 84.5878C110.408 83.2327 111.086 81.5113 111.086 79.4603C111.086 77.4093 110.408 75.6879 109.071 74.3328C107.735 72.9776 106.068 72.3001 104.109 72.3001C102.149 72.3001 100.483 72.9776 99.146 74.3328C97.8092 75.6879 97.1317 77.4093 97.1317 79.4603C97.1317 81.5113 97.8092 83.2327 99.146 84.5878Z" fill="#2E68E8"/>
<path d="M122.934 62.9793C122 62.9793 121.176 62.6496 120.498 61.9721C119.802 61.2945 119.473 60.4888 119.473 59.5182C119.473 58.5843 119.821 57.7785 120.498 57.1009C121.176 56.4234 122 56.0938 122.934 56.0938C123.904 56.0938 124.71 56.4234 125.369 57.1009C126.029 57.7785 126.358 58.5843 126.358 59.5182C126.358 60.4888 126.029 61.3128 125.369 61.9721C124.71 62.6313 123.904 62.9793 122.934 62.9793ZM120.352 91.4919V68.0885H125.497V91.5102H120.352V91.4919Z" fill="#2E68E8"/>
<path d="M140.186 91.7299C137.806 91.7299 135.883 91.0706 134.399 89.7338C132.916 88.4153 132.165 86.4742 132.165 83.947V72.6665H127.312V68.07H132.184V61.5508H137.329V68.07H144.032V72.6665H137.329V83.1046C137.329 84.533 137.641 85.5585 138.263 86.1811C138.886 86.7855 139.893 87.0968 141.267 87.0968C142.384 87.0968 143.318 86.932 144.032 86.6207V91.2171C142.915 91.565 141.633 91.7299 140.186 91.7299Z" fill="#2E68E8"/>
<path d="M156.154 91.9651C152.968 91.9651 150.294 90.7747 148.115 88.4124C145.936 86.0318 144.855 83.175 144.855 79.7872C144.855 76.3994 145.936 73.5426 148.115 71.162C150.294 68.7814 152.968 67.6094 156.154 67.6094C157.747 67.6094 159.212 67.9573 160.549 68.6715C161.886 69.3674 162.93 70.2281 163.644 71.2169V68.0855H168.79V91.5072H163.644V88.3758C162.93 89.383 161.886 90.2254 160.549 90.9212C159.212 91.6171 157.747 91.9651 156.154 91.9651ZM152.089 85.1345C153.407 86.5629 155.074 87.2954 157.107 87.2954C159.139 87.2954 160.806 86.5812 162.124 85.1345C163.443 83.7061 164.084 81.9115 164.084 79.7872C164.084 77.663 163.424 75.8866 162.124 74.44C160.806 73.0116 159.139 72.2791 157.107 72.2791C155.074 72.2791 153.407 72.9933 152.089 74.44C150.77 75.8683 150.129 77.663 150.129 79.7872C150.111 81.9115 150.77 83.6878 152.089 85.1345Z" fill="#2E68E8"/>
<path d="M173.57 91.4945V56.3711H178.716V91.4945H173.57Z" fill="#2E68E8"/>
</svg>
