<svg width="213" height="35" viewBox="0 0 213 35" fill="none" xmlns="http://www.w3.org/2000/svg">
    <path d="M0 20.5861C0 16.4557 3.34195 13.1138 7.50313 13.1138C11.6643 13.1138 15.0062 16.4557 15.0062 20.5861C15.0062 24.7781 11.6643 28.1183 7.50313 28.1183C3.34195 28.1183 0 24.7781 0 20.5861Z" fill="#04E061"/>
    <path d="M8.961 12.0813C10.5041 12.0813 11.7551 10.8303 11.7551 9.28722C11.7551 7.74412 10.5041 6.49316 8.961 6.49316C7.4179 6.49316 6.16699 7.74412 6.16699 9.28722C6.16699 10.8303 7.4179 12.0813 8.961 12.0813Z" fill="#965EEB"/>
    <path d="M12.6973 10.9564C12.6973 7.61444 15.4316 4.88184 18.7718 4.88184C22.1734 4.88184 24.877 7.61615 24.877 10.9564C24.877 14.358 22.1734 17.123 18.7718 17.123C15.4316 17.123 12.6973 14.358 12.6973 10.9564Z" fill="#00AAFF"/>
    <path d="M16.0078 22.6207C16.0078 20.0997 18.0133 18.0942 20.5633 18.0942C23.0535 18.0942 25.1187 20.0997 25.1187 22.6207C25.1187 25.1416 23.0535 27.1761 20.5633 27.1761C18.0116 27.1778 16.0078 25.1416 16.0078 22.6207Z" fill="#FF4053"/>
    <path d="M34.7892 6.27962H39.1023L46.9996 26.9336H42.777L41.1367 22.6205H32.7529L31.082 26.9336H26.8594L34.7892 6.27962ZM39.7098 18.8536L36.9465 11.5946L34.1832 18.8536H39.7098ZM44.5999 12.4446H48.6398L52.0415 21.6187L55.5046 12.4446H59.5446L54.1682 26.9336H50.1282L44.5999 12.4446ZM59.9406 8.5565C59.9406 7.00673 61.1865 5.76245 62.7346 5.76245C64.3134 5.76245 65.5286 7.00844 65.5286 8.5565C65.5286 10.1353 64.3134 11.3505 62.7346 11.3505C61.1848 11.3522 59.9406 10.137 59.9406 8.5565ZM60.7905 12.4446H64.6479V26.9336H60.7905V12.4446ZM68.4456 22.0744V15.8787H66.1977V12.4463H68.4456V8.55821H72.3337V12.4463H75.766V15.8787H72.3337V21.1937C72.3337 22.7725 73.1546 23.2282 74.3392 23.2282C75.1294 23.2282 75.766 22.9551 75.766 22.9551V26.5393C75.0065 26.8739 74.1258 27.0856 73.1239 27.0856C70.3589 27.0856 68.4456 25.5972 68.4456 22.0744ZM76.3719 19.7036C76.3719 15.5425 79.7138 12.1408 83.875 12.1408C88.0362 12.1408 91.3781 15.5425 91.3781 19.7036C91.3781 23.8051 88.0362 27.2067 83.875 27.2067C79.7138 27.2067 76.3719 23.8051 76.3719 19.7036ZM87.5208 19.7036C87.5208 17.6691 85.8805 16.0289 83.875 16.0289C81.8405 16.0289 80.2003 17.6691 80.2003 19.7036C80.2003 21.7091 81.8405 23.3493 83.875 23.3493C85.8805 23.3493 87.5208 21.7091 87.5208 19.7036Z" fill="white"/>
    <path d="M98.2119 6.27954H105.411C110.09 6.27954 113.035 8.92166 113.035 13.0538C113.035 17.2765 110.09 19.98 105.411 19.98H102.161V26.9353H98.2119V6.27954ZM109.117 13.0521C109.117 10.9254 107.719 9.74094 105.259 9.74094H102.161V16.5152H105.259C107.719 16.5152 109.117 15.2385 109.117 13.0521Z" fill="white"/>
    <path d="M114.099 19.7037C114.099 15.3599 117.289 12.1409 121.692 12.1409C126.188 12.1409 129.165 15.4214 129.074 19.9171L129.043 20.767H117.956C118.35 22.7725 119.81 24.0168 121.692 24.0168C123.484 24.0168 124.821 23.3187 125.792 21.5266L128.707 23.288C127.34 26.0223 124.698 27.2375 121.69 27.2375C117.287 27.2375 114.099 24.0185 114.099 19.7037ZM121.692 15.2694C120.052 15.2694 118.685 16.2713 118.139 17.9423H125.125C124.638 16.273 123.423 15.2694 121.692 15.2694Z" fill="white"/>
    <path d="M134.784 20.7072V26.9336H130.896V12.4446H134.784V18.3672L139.614 12.4446H143.958L138.216 19.3998L144.352 26.9319H139.735L134.784 20.7072Z" fill="white"/>
    <path d="M144.656 27.0241V23.4091C144.87 23.4398 145.112 23.4398 145.264 23.4398C146.539 23.4398 147.056 22.8014 147.208 19.1864L147.512 12.4429H159.055V26.9319H155.167V15.906H151.067L150.915 19.4288C150.673 25.1705 149.396 27.1435 146.085 27.1435C145.597 27.1469 145.051 27.0855 144.656 27.0241Z" fill="white"/>
    <path d="M160.876 19.7035C160.876 15.329 164.035 12.1714 168.227 12.1714C170.292 12.1714 171.963 12.9002 172.754 13.9328V12.4445H176.551V26.9335H172.754V25.4452C171.963 26.4778 170.292 27.2066 168.227 27.2066C164.035 27.2066 160.876 24.0781 160.876 19.7035ZM172.721 19.7035C172.721 17.273 171.081 15.5423 168.772 15.5423C166.462 15.5423 164.853 17.273 164.853 19.7035C164.853 22.134 166.462 23.834 168.772 23.834C171.081 23.8357 172.721 22.134 172.721 19.7035Z" fill="white"/>
    <path d="M179.13 12.4446H183.231L187.331 19.8555L191.402 12.4446H195.502V26.9336H191.948V18.0941L188.577 24.2898H186.116L182.683 18.0941V26.9336H179.13V12.4446Z" fill="white"/>
    <path d="M197.324 19.7035C197.324 15.329 200.484 12.1714 204.675 12.1714C206.741 12.1714 208.412 12.9002 209.202 13.9328V12.4445H213V26.9335H209.202V25.4452C208.412 26.4778 206.741 27.2066 204.675 27.2066C200.484 27.2066 197.324 24.0781 197.324 19.7035ZM209.171 19.7035C209.171 17.273 207.531 15.5423 205.222 15.5423C202.912 15.5423 201.303 17.273 201.303 19.7035C201.303 22.134 202.912 23.834 205.222 23.834C207.531 23.8357 209.171 22.134 209.171 19.7035Z" fill="white"/>
</svg>
