<svg width="677" height="110" viewBox="0 0 677 110" fill="none" xmlns="http://www.w3.org/2000/svg">
<path fill-rule="evenodd" clip-rule="evenodd" d="M320.634 19.6426H339.102C347.567 19.6426 354.108 21.6344 358.726 25.6169C363.343 29.5992 365.655 35.2292 365.659 42.5082C365.659 50.4122 363.309 56.0296 358.478 59.8399C353.647 63.6489 347.171 65.5597 339.057 65.5597H332.339V91.8854H320.621L320.634 19.6426ZM339.2 56.3725C343.766 56.3725 347.363 55.2437 349.992 52.9849C352.62 50.7248 353.925 47.1967 353.909 42.3968C353.909 37.7324 352.681 34.3055 350.226 32.1149C347.771 29.9245 344.225 28.8286 339.585 28.8235H332.319V56.3725H339.2Z" fill="white"/>
<path fill-rule="evenodd" clip-rule="evenodd" d="M560.937 56.0111V78.9901C560.937 83.2431 561.131 87.5677 561.552 91.8594H551.095C550.486 90.2986 550.087 88.6649 549.908 87.0008H549.298C548.533 87.7599 547.723 88.4713 546.871 89.1311C546.149 89.6903 545.396 90.2119 544.617 90.6946C542.737 91.8786 539.885 92.4708 536.059 92.4708C531.4 92.4708 527.642 91.0251 524.785 88.1332C521.927 85.2414 520.501 81.1518 520.506 75.862C520.506 70.6375 522.632 66.3456 526.943 63.4173C531.255 60.489 538.082 59.0287 547.405 59.0287H549.908L549.94 56.0111C549.908 52.9483 549.195 50.793 547.697 49.5374C546.2 48.2831 543.853 47.4789 540.721 47.4789C537.534 47.5643 534.386 48.1889 531.411 49.325C528.827 50.1545 526.388 51.3761 524.182 52.9483V43.2259C526.518 41.8623 528.996 40.755 531.573 39.9243C535.01 38.8246 538.608 38.2955 542.219 38.3609C548.618 38.3609 553.448 39.6478 556.573 42.331C559.698 45.0142 560.937 49.3313 560.937 56.0111ZM549.914 78.5327V67.5936H547.619C541.953 67.5936 538.16 68.2371 535.755 69.524C533.349 70.811 532.15 72.9928 532.15 76.0556C532.056 78.172 532.808 80.2406 534.244 81.8078C535.638 83.2745 537.667 84.0021 540.514 84.0021C542.573 84.0323 544.586 83.3927 546.245 82.1811C547.644 81.1455 548.879 79.9063 549.908 78.5076L549.914 78.5327Z" fill="white"/>
<path fill-rule="evenodd" clip-rule="evenodd" d="M411.461 88.6348C409.395 90.011 407.125 91.0579 404.732 91.7354C401.474 92.7071 398.083 93.1681 394.682 93.1003C386.903 93.1003 380.914 90.8492 376.717 86.35C372.52 81.8494 370.419 75.0313 370.415 65.8933C370.338 61.0735 371.133 56.2789 372.762 51.7369C374.134 47.8447 376.632 44.4401 379.945 41.9503C383.174 39.5826 387.253 38.3987 392.18 38.3987C395.848 38.3107 399.475 39.1754 402.703 40.9072C405.685 42.5813 407.993 45.2494 409.627 48.9129C411.254 52.5739 412.077 57.8499 412.077 63.6098V70.0445H382.059C382.267 74.7863 383.505 78.1847 385.514 80.4884C387.524 82.7907 390.74 84.0274 395.532 84.0274C398.564 83.9885 401.568 83.4468 404.42 82.4251C406.896 81.6345 409.261 80.5386 411.461 79.1624V88.6348ZM392.303 47.4965C385.819 47.4965 382.345 52.2849 382.059 61.4795H401.049V60.1159C401.049 56.6019 400.498 53.4624 399.246 51.0746C397.995 48.688 395.674 47.4965 392.303 47.4965Z" fill="white"/>
<path d="M451.892 91.8845L432.903 65.7393V91.8845H421.881V39.5957H432.903V64.524L451.283 39.5957H463.53L445.157 63.9119L465.371 91.8845H451.892Z" fill="white"/>
<path d="M471.179 82.754C470.429 82.7276 469.697 82.5203 469.046 82.1483L469.039 91.8968C469.305 91.9728 469.573 92.0407 469.843 92.1021C470.984 92.3624 472.152 92.4963 473.325 92.5027C476.787 92.5027 479.445 91.8913 481.326 90.1602C483.205 88.4359 484.563 85.7439 485.397 82.0841C486.343 77.4429 486.866 72.7274 486.96 67.9918L487.699 48.6877H500.899V91.8784H511.921V39.5898H477.617L476.729 67.459C476.528 73.2565 476.094 77.2267 475.432 79.3695C474.771 81.5123 473.331 82.754 471.179 82.754Z" fill="white"/>
<path fill-rule="evenodd" clip-rule="evenodd" d="M676.108 56.0109V78.9899C676.108 83.2429 676.302 87.5675 676.718 91.8592H666.267C665.658 90.2985 665.259 88.6647 665.08 87.0007H664.47C663.057 88.4045 661.486 89.6437 659.789 90.6944C657.909 91.8784 655.057 92.4706 651.231 92.4706C646.563 92.4706 642.805 91.0249 639.957 88.133C637.108 85.2424 635.681 81.1516 635.678 75.8618C635.678 70.6373 637.804 66.3454 642.115 63.4171C646.428 60.4901 653.247 59.0285 662.578 59.0285H665.08L665.112 56.0109C665.08 52.9481 664.36 50.7928 662.869 49.5372C661.378 48.2829 659.025 47.4787 655.893 47.4787C652.706 47.5641 649.558 48.1874 646.583 49.3248C643.998 50.153 641.559 51.3747 639.354 52.9481V43.2257C641.688 41.8633 644.164 40.7561 646.738 39.9241C650.176 38.8244 653.773 38.2966 657.384 38.3607C663.789 38.3607 668.62 39.6476 671.738 42.3308C674.857 45.014 676.108 49.3312 676.108 56.0109ZM665.086 78.5325V67.5934H662.791C657.125 67.5934 653.331 68.2369 650.926 69.5239C648.521 70.8108 647.322 72.9926 647.322 76.0554C647.225 78.1718 647.975 80.2391 649.409 81.8076C650.804 83.2743 652.833 84.002 655.686 84.002C657.744 84.0321 659.754 83.3938 661.41 82.1809C662.144 81.6405 662.831 81.0448 663.468 80.3988C664.05 79.8081 664.588 79.176 665.08 78.5074L665.086 78.5325Z" fill="white"/>
<path d="M616.072 50.5347V91.8845H627.126V39.5957H610.587L598.917 76.0738L588.504 39.5957H571.355V91.8845H581.152V49.9302L593.405 91.8845H602.599L616.072 50.5347Z" fill="white"/>
<path d="M35.717 91.8853V28.7794H29.0133C23.8265 28.7794 19.8975 30.011 17.2263 32.4731C14.555 34.9364 13.2131 38.2115 13.2001 42.2999C13.1336 44.8335 13.5585 47.3559 14.4516 49.7312C15.3193 51.8162 16.6229 53.6926 18.2767 55.2397C20.2768 57.0947 22.4308 58.7801 24.7148 60.2782L31.1074 64.5437L12.675 91.8853H0L16.6299 67.3501C11.5989 63.8185 7.84467 60.1474 5.36813 56.3331C2.84219 52.3541 1.54868 47.7279 1.64681 43.0263C1.64681 36.0247 4.03915 30.3755 8.82383 26.0773C13.6085 21.7791 20.643 19.6338 29.9272 19.6426H47.3159V91.8917L35.717 91.8853Z" fill="white"/>
<path d="M87.455 39.5957H98.8726V91.8845H87.455V69.7422H69.7551V91.8845H58.3379V39.5957H69.7551V60.5928H87.455V39.5957Z" fill="white"/>
<path fill-rule="evenodd" clip-rule="evenodd" d="M155.121 103.808V82.7081L149.539 82.683V39.5703H114.062V44.0357C114.062 48.3338 113.921 52.9085 113.64 57.761C113.384 62.4111 112.86 67.0423 112.072 71.6346C111.477 75.474 110.313 79.2067 108.616 82.7081H105.154V103.808H115.632V91.8585H144.645V103.808H155.121ZM138.148 48.7134V82.7081L119.508 82.7019C120.815 79.58 121.746 76.3174 122.283 72.9793C122.953 69.1449 123.425 65.2791 123.697 61.3969C123.977 57.4493 124.118 53.9517 124.118 50.9014V48.7134H138.148Z" fill="white"/>
<path fill-rule="evenodd" clip-rule="evenodd" d="M200.578 88.3205C198.472 89.7369 196.157 90.8227 193.718 91.5379C190.438 92.5001 187.029 92.9566 183.61 92.8888C175.783 92.8888 169.76 90.6543 165.541 86.1839C161.323 81.7136 159.211 74.9408 159.207 65.8631C159.126 61.0646 159.924 56.2926 161.56 51.777C162.948 47.8986 165.464 44.5141 168.789 42.0546C172.039 39.6993 176.146 38.5218 181.107 38.5218C184.792 38.4338 188.438 39.2934 191.688 41.0189C194.688 42.6792 197.009 45.3298 198.652 48.9719C200.294 52.614 201.115 57.4804 201.115 63.572V69.8144H171.052C171.26 74.5324 172.376 78.0312 174.404 80.3086C176.431 82.587 179.852 83.7295 184.667 83.7383C187.647 83.7345 190.605 83.2243 193.413 82.2326C195.937 81.4069 198.349 80.2721 200.591 78.8545L200.578 88.3205ZM180.887 47.6786C174.599 47.6786 171.315 52.2169 171.039 61.2946H189.471V59.9436C189.569 56.9298 188.942 53.9362 187.643 51.2115C186.42 48.8726 184.168 47.7038 180.887 47.7038V47.6786Z" fill="white"/>
<path d="M221.907 65.553L241.182 91.8585L254.623 91.8906L234.407 64.1316L252.282 39.5703H240.346L221.907 64.8266V39.5703H210.49V91.8585H221.907V65.553Z" fill="white"/>
<path d="M278.995 92.8952C270.826 92.8952 264.751 90.5576 260.77 85.8811C256.79 81.2059 254.798 74.5009 254.798 65.7663C254.699 60.9151 255.608 56.0965 257.47 51.6098C259.101 47.6812 261.873 44.3218 265.432 41.9578C268.95 39.6416 273.295 38.4815 278.469 38.4765C278.762 38.4727 279.054 38.4714 279.347 38.474C279.697 38.4765 280.047 38.484 280.396 38.4965C280.905 38.5141 281.412 38.5418 281.919 38.5795C283.372 38.6889 284.817 38.8799 286.25 39.1526C288.05 39.4706 289.784 40.0864 291.379 40.9737V50.9539C289.834 50.0276 288.182 49.2924 286.458 48.7658C284.328 48.0708 282.099 47.7214 279.858 47.7302C275.595 47.7302 272.332 49.2207 270.067 52.2018C267.802 55.1829 266.668 59.5829 266.663 65.3992C266.663 70.9467 267.674 75.3643 269.698 78.6558C271.721 81.9461 275.072 83.5912 279.753 83.5912C281.976 83.6352 284.191 83.3022 286.302 82.6059C288.098 81.9687 289.805 81.1028 291.379 80.032V89.5948C289.804 90.6871 288.048 91.4964 286.192 91.9877C283.857 92.6175 281.447 92.9319 279.027 92.9218L278.995 92.8952Z" fill="white"/>
</svg>
